<?xml version="1.0" encoding="utf-8"?>
<!-- Generator: Adobe Illustrator 25.0.0, SVG Export Plug-In . SVG Version: 6.00 Build 0)  -->
<svg version="1.1" id="Layer_1" xmlns="http://www.w3.org/2000/svg" xmlns:xlink="http://www.w3.org/1999/xlink" x="0px" y="0px"
	 viewBox="0 0 841.89 595.28" style="enable-background:new 0 0 841.89 595.28;" xml:space="preserve">
<style type="text/css">
	.st0{fill:#231F20;}
	.st1{fill:#231F20;stroke:#262115;}
</style>
<path class="st0" d="M296,31.28c-13,5-125,77-151,178s-21,184,60,283s299,149,443,17s114-341-28-453S296,31.28,296,31.28z"/>
<path d="M158,373.28c0,0-32.61-129.27,31-221s185-125,185-125s149-19,223,41s121,120,125,169s10,102-10,142s-12,30-13,33
	s-10,17-10,17l-42,27c0,0-11.17,14.34,9,19s-11,5-11,5s-27-14-6-30s39-24,39-24l-1-11l-67-106l-10-3l-36,21c0,0-20,13-21-12
	s-18-21.15-18-21.15s-31,11.15-21,23.15s20,15,20,15s5,14-2,17s-40,25-40,25s-6,7-2,12s19,25,19,25s4,18,11-1s38-13,39-8
	s21,13,16,36s-18,21-18,21s-26-5-9,14s17,19,17,19l0,0h11l27-14c0,0,24-10,24,6s0,22,0,22l10,5h-14l-5-12c0,0,7-27-20-8
	s-29,25-29,25l15,20c0,0,3,10-9,0s-13-24-17-21s-42,25.44-42,25.44s-15-0.44-20-10.44s13-29-20-22s-22,21.89-16,32.44
	s21-3.44,18,9.56s-25,24-25,24h-6.33l7.33-11l12-8c0,0,9.48-2.32-2.91-8.12c-12.4-5.8-19.38-21.1-16.42-31.91
	c2.97-10.81,50.97-37.45,59.67-1.05c8.7,36.4,48.53-9.23,48.53-9.23l-23.21-37.19c0,0-8.97-17.14,13.19-21.63
	c22.15-4.48,30.59-13.98,7.65-37.19c-22.95-23.21-15.82,15.56-26.9,16.62c0,0-16.62,5.27-21.89,0.26
	c-5.27-5.01-25.58-40.62-25.58-40.62l-42.2,20.84c0,0-6.2,11.6,11.93,14.77c18.13,3.16,3.37,34.81,3.37,34.81
	s-6.86,11.08-24.26,12.66c-17.41,1.58-30.59-12.13-30.59-14.24s3.16-15.3,3.16-15.3s0-11.08-17.41-2.11s-32.7,17.93-32.7,17.93
	l0.53,6.86l20.04,31.12c0,0,3.69,16.88,0,18.99c-3.69,2.11-23.74,4.22-23.74,4.22s-36.4,58.02,31.12,22.68l8.97-4.22
	c0,0,13.19,2.64,14.24,5.8c1.05,3.16,15.3,25.32,15.3,25.32l-4.22,3.69l-5.27-0.53l-16.35-27.96c0,0-15.3,12.13-16.35,17.41
	c-1.05,5.27-27.96,0.53-27.96,0.53s-22.15-32.18-10.02-44.31l23.74-8.44l1.58-13.19c0,0-18.99-34.29-20.57-33.76
	c-1.58,0.53-37.45,22.68-37.45,22.68s-8.97,12.13-25.85-1.58l1.05-21.63c0,0-65.41-16.35-29.54,26.37c0,0,10.55,4.22,10.02,6.86
	c-0.53,2.64,0,14.24,0,14.24l-10.02-11.08l-10.02-6.33l-10.02-13.71c0,0,14.24-54.33,51.69-23.21c0,0,4.22,55.91,44.84,5.8
	c0,0,18.46,4.22,1.05-20.57c-17.41-24.79-22.68-40.62-10.02-42.2c12.66-1.58,47.47-23.21,29.01-30.59
	c-18.46-7.38-26.9-13.71-34.81-1.05s-7.91,12.66-7.91,12.66s-16.35-1.05-19.52-6.86c-3.16-5.8-23.21-37.45-23.21-37.45
	s-1.58-8.97-20.57,3.69l-30.59,18.99L158,373.28z"/>
<path class="st0" d="M384.25,247.81l-124.48,72.79c0,0-1.05,7.91,0,10.02c1.05,2.11,20.04,29.01,20.04,29.01s12.13,5.27,12.13,3.69
	c0-1.58,27.43-26.9,37.45-14.24c10.02,12.66,29.01,42.73,10.02,50.11s-22.15,1.05-22.68,2.64c-0.53,1.58-14.24-1.58-0.53,17.41
	c13.71,18.99,14.24,24.79,14.24,24.79s7.38,2.64,12.13,0s33.23-18.99,33.23-18.99s20.57-2.11,20.57,12.66
	c0,14.77,18.99,32.7,30.07,18.46c11.08-14.24,16.88-30.59-7.91-39.03c0,0-13.32-17.36,23.21-29.54
	c3.16-1.05,18.99-10.55,18.99-10.55s5.27-2.64-3.69-15.3c-8.97-12.66-18.54-29.01-18.54-29.01s-7.24-7.91-17.56,13.71
	s-49.35-4.75-44.6-12.13s-13.19-32.22,30.59-36.68c0,0,11.08-0.77,0-16.07C395.86,266.28,384.25,247.81,384.25,247.81z"/>
<path class="st1" d="M447.55,91.15l146.64,39.03l-35.34,137.14l-47.47-9.49c0,0-17.41,0-0.53-14.77
	c16.88-14.77,3.69-39.56-10.02-40.09c-13.71-0.53-44.84,6.33-41.14,27.43c0,0,10.47,9.49,2.6,11.08
	c-7.87,1.58-52.18-6.33-52.18-6.33l10.85-48c0,0,7.77-4.44-20.87-11.6c-4.22-1.05-30.07,2.64-25.85-13.71s8.97-41.67,39.56-18.99
	c0,0,16.71,11.08,24.71-7.38S447.55,91.15,447.55,91.15z"/>
</svg>
